<svg width="51" height="51" viewBox="0 0 51 51" fill="none" xmlns="http://www.w3.org/2000/svg">
<path d="M50.0244 24.1509L42.7076 22.0555C39.4127 21.1246 36.4112 19.3618 33.9905 16.9358C31.5698 14.5099 29.8109 11.502 28.8819 8.1999L26.791 0.867266C26.6859 0.610722 26.507 0.391297 26.2771 0.236873C26.0472 0.0824499 25.7767 0 25.5 0C25.2233 0 24.9528 0.0824499 24.7229 0.236873C24.493 0.391297 24.3141 0.610722 24.209 0.867266L22.1181 8.1999C21.1891 11.502 19.4302 14.5099 17.0095 16.9358C14.5888 19.3618 11.5873 21.1246 8.29239 22.0555L0.975595 24.1509C0.694655 24.2309 0.447392 24.4004 0.271326 24.6339C0.0952598 24.8674 0 25.1521 0 25.4448C0 25.7375 0.0952598 26.0221 0.271326 26.2556C0.447392 26.4891 0.694655 26.6587 0.975595 26.7386L8.29239 28.834C11.5873 29.765 14.5888 31.5278 17.0095 33.9537C19.4302 36.3797 21.1891 39.3876 22.1181 42.6897L24.209 50.0223C24.2887 50.3038 24.4579 50.5516 24.6909 50.7281C24.9239 50.9045 25.208 51 25.5 51C25.792 51 26.0761 50.9045 26.3091 50.7281C26.5421 50.5516 26.7113 50.3038 26.791 50.0223L28.8819 42.6897C29.8109 39.3876 31.5698 36.3797 33.9905 33.9537C36.4112 31.5278 39.4127 29.765 42.7076 28.834L50.0244 26.7386C50.3053 26.6587 50.5526 26.4891 50.7287 26.2556C50.9047 26.0221 51 25.7375 51 25.4448C51 25.1521 50.9047 24.8674 50.7287 24.6339C50.5526 24.4004 50.3053 24.2309 50.0244 24.1509Z" fill="#E94600"/>
</svg>
